<?xml version="1.0" standalone="no"?>
<!DOCTYPE svg PUBLIC "-//W3C//DTD SVG 20010904//EN"
 "http://www.w3.org/TR/2001/REC-SVG-20010904/DTD/svg10.dtd">
<svg version="1.0" xmlns="http://www.w3.org/2000/svg"
 width="548.000000pt" height="543.000000pt" viewBox="0 0 548.000000 543.000000"
 preserveAspectRatio="xMidYMid meet">
<metadata>
Created by potrace 1.16, written by Peter Selinger 2001-2019
</metadata>
<g transform="translate(0.000000,543.000000) scale(0.100000,-0.100000)"
fill="#000000" stroke="none">
<path d="M2425 5400 c-44 -5 -138 -21 -210 -35 -849 -164 -1557 -702 -1935
-1470 -125 -254 -193 -462 -246 -755 -32 -175 -44 -526 -25 -708 98 -934 656
-1748 1483 -2163 224 -112 445 -188 697 -239 l146 -30 376 0 c333 0 387 2 485
20 911 168 1650 759 2024 1620 73 168 141 406 182 635 20 117 23 160 22 425 0
275 -2 305 -27 440 -82 449 -248 837 -503 1177 -378 504 -919 865 -1514 1012
-251 62 -343 73 -620 76 -140 2 -291 0 -335 -5z m685 -104 c566 -89 1077 -351
1471 -753 132 -134 158 -164 246 -283 215 -292 353 -585 443 -940 54 -217 65
-318 65 -625 0 -363 -23 -517 -122 -820 -305 -937 -1120 -1628 -2103 -1782
-164 -26 -625 -25 -790 0 -741 117 -1389 534 -1804 1162 -207 314 -343 669
-403 1055 -26 164 -26 606 0 770 74 475 259 896 560 1270 165 205 428 438 652
577 349 217 692 333 1145 387 87 10 539 -3 640 -18z"/>
<path d="M2545 5300 c-907 -52 -1749 -609 -2160 -1428 -142 -284 -235 -593
-265 -887 -15 -141 -15 -439 0 -580 39 -375 192 -806 399 -1121 430 -657 1092
-1076 1861 -1180 169 -23 501 -23 669 0 406 55 774 193 1110 417 635 423 1045
1081 1147 1839 23 169 23 501 0 670 -102 760 -519 1424 -1158 1847 -296 195
-670 341 -1018 397 -84 14 -399 38 -440 34 -8 0 -73 -4 -145 -8z m490 -66
c845 -100 1597 -635 1976 -1404 130 -266 210 -533 251 -840 16 -122 16 -468 0
-590 -61 -463 -217 -855 -486 -1225 -358 -491 -902 -847 -1496 -979 -281 -62
-656 -77 -925 -37 -342 51 -648 156 -922 317 -640 375 -1083 992 -1228 1709
-39 195 -49 298 -49 515 0 272 37 519 111 754 32 102 123 328 158 391 15 28
43 79 63 115 153 280 405 567 687 782 181 137 456 285 683 367 363 131 766
174 1177 125z"/>
<path d="M1203 4250 c-4 -16 -11 -20 -27 -17 -38 9 -189 -7 -194 -20 -2 -9 9
-13 36 -13 l40 0 -5 -81 c-5 -73 -4 -81 11 -78 14 3 18 18 22 78 3 41 7 78 10
82 3 5 26 9 51 9 l46 0 -6 -42 c-3 -24 -9 -62 -13 -85 -9 -61 14 -57 54 8 32
51 52 57 52 16 0 -29 29 -72 41 -60 6 6 5 21 0 39 -5 16 -12 41 -15 57 -5 20
-12 27 -30 27 -15 0 -33 -11 -46 -27 -16 -21 -20 -23 -15 -8 14 43 18 122 6
130 -8 4 -14 -1 -18 -15z"/>
<path d="M3340 4244 c-6 -14 -10 -34 -10 -45 0 -14 -7 -19 -28 -19 -54 0 -114
-97 -83 -134 13 -16 55 -10 72 10 15 18 29 18 29 -1 0 -9 9 -15 24 -15 13 0
26 7 30 15 3 9 0 15 -10 15 -24 0 -26 22 -9 101 8 41 15 80 15 87 0 22 -20 13
-30 -14z"/>
<path d="M2086 4174 c-3 -9 -6 -38 -6 -64 0 -27 -5 -72 -11 -100 -8 -38 -8
-55 0 -63 15 -15 20 -7 29 44 7 39 11 44 42 50 19 4 45 19 57 34 62 71 23 148
-48 96 -29 -21 -29 -21 -29 -1 0 24 -25 27 -34 4z"/>
<path d="M2535 4167 c-37 -32 -47 -110 -16 -126 47 -26 111 23 111 85 0 61
-48 82 -95 41z"/>
<path d="M2666 4175 c-7 -20 11 -107 29 -131 16 -22 36 -9 55 36 16 38 21 37
40 -2 24 -51 37 -46 70 27 34 75 36 85 16 85 -7 0 -23 -23 -35 -51 -25 -56
-31 -57 -40 -2 -9 53 -27 51 -56 -7 -15 -29 -29 -49 -33 -46 -3 4 -9 28 -12
53 -5 47 -23 67 -34 38z"/>
<path d="M2955 4168 c-33 -25 -58 -82 -50 -109 8 -23 42 -25 72 -4 20 14 23
14 33 -4 6 -12 16 -18 25 -15 11 5 12 10 4 26 -6 12 -8 38 -5 60 11 67 -26 88
-79 46z"/>
<path d="M705 4075 c-47 -46 -27 -123 39 -145 91 -30 164 74 99 142 -36 38
-102 40 -138 3z"/>
<path d="M2293 3925 c-96 -42 -71 -178 36 -192 74 -10 141 38 141 101 0 40
-20 69 -64 90 -41 19 -70 20 -113 1z"/>
<path d="M3324 3926 c-87 -38 -85 -153 3 -187 39 -14 86 -10 117 10 76 51 72
132 -9 171 -48 23 -68 24 -111 6z"/>
<path d="M4760 3929 c-52 -21 -100 -92 -100 -146 1 -48 35 -108 76 -133 138
-86 302 69 222 211 -36 64 -128 96 -198 68z m131 -42 c67 -45 75 -139 18 -196
-108 -108 -282 33 -196 160 42 62 116 78 178 36z"/>
<path d="M4763 3864 c-9 -4 -13 -31 -13 -85 0 -64 3 -79 15 -79 10 0 15 11 15
35 0 51 19 44 78 -29 20 -25 36 -8 17 17 -26 37 -29 49 -12 59 21 11 22 51 2
68 -16 13 -83 22 -102 14z"/>
<path d="M845 3839 c-83 -67 -80 -61 -51 -108 66 -104 82 -200 46 -279 -12
-28 -71 -94 -168 -190 -212 -210 -254 -298 -195 -412 69 -135 241 -194 395
-134 196 77 245 247 113 393 -46 51 -58 46 -20 -8 37 -55 54 -106 55 -170 1
-120 -84 -186 -240 -186 -72 0 -93 4 -135 26 -90 46 -116 117 -74 208 31 70
83 126 208 225 64 51 130 109 148 129 76 87 119 203 110 296 -9 81 -97 252
-130 251 -7 -1 -34 -19 -62 -41z"/>
<path d="M1935 3849 c-60 -17 -105 -82 -105 -153 0 -33 -2 -35 -37 -38 l-38
-3 -3 -62 -3 -63 41 0 40 0 0 -245 0 -245 110 0 110 0 2 243 3 242 43 3 43 3
-3 62 -3 62 -42 3 c-34 3 -43 7 -43 22 0 36 13 50 51 56 l39 7 0 58 0 59 -87
-1 c-49 0 -102 -5 -118 -10z"/>
<path d="M3707 3824 c-4 -4 -7 -43 -7 -86 l0 -78 -40 0 -40 0 0 -65 0 -65 40
0 40 0 0 -177 c0 -198 7 -237 48 -276 36 -35 124 -52 208 -40 l59 8 3 58 c3
57 3 57 -25 57 -16 0 -39 7 -51 16 -21 15 -22 21 -22 184 l0 169 48 3 47 3 0
60 0 60 -47 3 -47 3 -3 82 -3 82 -101 3 c-55 1 -103 0 -107 -4z"/>
<path d="M1397 3656 c-22 -8 -49 -24 -61 -35 -29 -27 -34 -26 -38 7 l-3 27
-97 3 -98 3 0 -311 0 -310 105 0 105 0 0 210 c0 220 7 259 45 274 27 10 63 7
72 -6 4 -7 10 -116 13 -243 l5 -230 103 -3 102 -3 0 258 c0 282 -4 304 -61
346 -35 25 -140 33 -192 13z"/>
<path d="M2915 3659 c-16 -7 -44 -22 -62 -35 -40 -30 -41 -30 -45 4 l-3 27
-95 0 -95 0 -3 -307 -2 -308 105 0 105 0 0 210 c0 255 8 280 85 280 14 0 29
-9 35 -19 6 -12 10 -109 10 -246 l0 -226 108 3 107 3 0 250 c0 230 -2 253 -20
289 -29 58 -62 77 -136 82 -35 2 -77 -1 -94 -7z"/>
<path d="M4246 3650 c-66 -26 -111 -71 -127 -128 -22 -73 -19 -305 4 -364 37
-96 124 -133 291 -126 105 5 160 23 198 65 26 28 48 88 48 128 l0 35 -94 0
-93 0 -7 -40 c-8 -51 -41 -75 -91 -66 -45 9 -55 29 -55 110 l0 66 175 0 175 0
0 65 c0 136 -31 204 -114 247 -60 32 -240 37 -310 8z m199 -115 c19 -18 25
-35 25 -65 l0 -41 -72 3 -73 3 1 44 c2 75 69 107 119 56z"/>
<path d="M2260 3350 l0 -310 100 0 100 0 0 310 0 310 -100 0 -100 0 0 -310z"/>
<path d="M3295 3648 c-3 -7 -4 -146 -3 -308 l3 -295 100 0 100 0 0 305 0 305
-98 3 c-73 2 -99 -1 -102 -10z"/>
<path d="M2078 2898 c-2 -13 -2 -96 0 -186 l3 -163 147 3 147 3 0 40 0 40 -90
5 c-78 4 -90 8 -93 24 -6 27 15 36 86 36 l62 0 0 40 0 39 -72 3 c-65 3 -73 5
-73 23 0 18 8 20 88 23 l88 3 -3 42 -3 42 -142 3 c-141 3 -142 2 -145 -20z"/>
<path d="M2617 2914 c-4 -4 -7 -31 -7 -61 l0 -54 -30 16 c-37 19 -63 19 -100
0 -77 -40 -88 -179 -20 -247 33 -33 91 -38 129 -12 17 13 25 14 31 5 4 -8 24
-11 51 -9 l44 3 0 180 0 180 -45 3 c-25 2 -49 0 -53 -4z"/>
<path d="M3108 2914 c-3 -3 21 -86 54 -185 l60 -180 61 3 60 3 58 174 c32 96
56 178 53 182 -3 5 -27 9 -54 9 l-49 0 -20 -67 c-11 -38 -25 -87 -31 -110 -6
-24 -14 -43 -19 -43 -4 0 -15 34 -25 76 -37 155 -30 144 -90 144 -29 0 -55 -3
-58 -6z"/>
<path d="M3535 2811 c-50 -23 -75 -65 -75 -128 0 -90 57 -143 154 -143 53 0
88 12 116 40 35 35 26 50 -30 50 -27 0 -50 -4 -50 -10 0 -11 -39 -13 -64 -4
-9 3 -16 14 -16 25 0 16 10 19 98 21 l97 3 -3 33 c-4 51 -29 90 -72 112 -49
25 -103 25 -155 1z"/>
<path d="M3953 2818 c-13 -6 -23 -15 -23 -20 0 -4 -4 -8 -10 -8 -5 0 -10 7
-10 16 0 12 -10 14 -47 12 l-48 -3 -3 -132 -3 -133 56 0 55 0 0 63 c0 72 17
104 58 109 25 3 27 6 27 53 0 54 -11 63 -52 43z"/>
<path d="M4093 2815 c-40 -17 -57 -48 -48 -91 7 -37 26 -50 115 -76 51 -15 61
-41 17 -46 -18 -2 -29 2 -33 12 -4 12 -20 16 -55 16 -41 0 -49 -3 -49 -18 0
-10 12 -29 26 -43 23 -21 34 -24 110 -24 78 0 85 2 111 27 31 32 37 88 11 114
-9 9 -45 24 -79 34 -42 11 -65 23 -67 34 -4 21 40 22 58 1 12 -15 81 -21 93
-9 11 11 -13 44 -46 64 -38 24 -117 26 -164 5z"/>
<path d="M4418 2809 c-86 -45 -96 -183 -17 -242 30 -22 101 -33 152 -23 36 7
87 49 87 72 0 17 -95 20 -105 4 -11 -18 -64 -11 -74 9 -6 10 -7 21 -4 25 3 3
48 6 100 6 l93 0 0 30 c0 17 -6 46 -14 65 -29 68 -140 96 -218 54z"/>
<path d="M2770 2725 c0 -114 14 -156 59 -175 35 -14 86 -7 112 16 15 13 17 13
22 -1 5 -10 20 -15 51 -15 53 0 52 -3 48 153 l-3 117 -50 0 -49 0 0 -69 c0
-89 -12 -121 -44 -121 -31 0 -36 15 -36 111 l0 79 -55 0 -55 0 0 -95z"/>
<path d="M1798 2441 c-185 -3 -339 -9 -342 -12 -13 -13 379 -19 1214 -19 875
0 1269 7 1180 21 -63 10 -1643 18 -2052 10z"/>
<path d="M1543 2123 c-10 -4 -13 -45 -13 -160 l0 -154 23 3 c22 3 22 6 25 154
3 154 -1 169 -35 157z"/>
<path d="M2533 2098 c-32 -34 -45 -76 -45 -146 1 -67 23 -127 55 -146 29 -18
38 11 15 50 -11 18 -22 57 -24 86 -5 44 -1 62 20 103 21 40 23 52 13 63 -11
10 -17 8 -34 -10z"/>
<path d="M4741 2106 c-10 -11 -8 -23 8 -55 28 -54 28 -131 0 -189 -19 -39 -20
-45 -6 -59 14 -14 18 -11 43 27 50 76 42 222 -15 274 -16 14 -20 15 -30 2z"/>
<path d="M520 1969 c0 -130 0 -130 23 -127 20 3 22 9 27 86 l5 83 45 -83 c35
-63 51 -84 69 -86 13 -2 27 1 30 7 11 17 12 224 2 240 -5 8 -16 11 -25 8 -13
-5 -16 -23 -16 -89 -1 -77 -2 -82 -16 -63 -9 11 -29 47 -46 80 -34 66 -42 75
-75 75 -23 0 -23 -2 -23 -131z"/>
<path d="M790 1970 l0 -131 88 3 c79 3 87 5 87 23 0 18 -8 20 -63 23 -62 3
-63 3 -60 30 3 25 8 27 53 32 36 4 50 9 50 20 0 11 -14 16 -52 18 -51 3 -53 4
-53 32 0 29 1 29 63 32 54 3 62 5 62 23 0 18 -8 20 -87 23 l-88 3 0 -131z"/>
<path d="M1014 2087 c-2 -7 -3 -65 -2 -128 l3 -114 85 0 c80 0 85 1 88 22 3
20 -1 22 -60 25 -60 3 -63 4 -63 28 0 23 4 25 53 28 43 3 52 6 52 22 0 16 -9
19 -52 22 -49 3 -53 5 -56 31 l-3 27 66 0 c63 0 66 1 63 23 -3 20 -9 22 -86
25 -62 2 -84 -1 -88 -11z"/>
<path d="M1217 2094 c-4 -4 -7 -16 -7 -26 0 -14 8 -18 35 -18 l34 0 3 -102 c3
-95 4 -103 23 -103 18 0 20 8 25 100 l5 100 35 5 c27 4 35 10 35 25 0 18 -8
20 -90 23 -50 1 -94 0 -98 -4z"/>
<path d="M1827 2094 c-4 -4 -7 -41 -7 -83 0 -111 -6 -124 -46 -118 -19 3 -40
0 -50 -7 -16 -12 -16 -15 9 -31 35 -22 95 -14 120 16 15 19 17 38 15 123 -2
82 -6 101 -18 104 -9 1 -19 0 -23 -4z"/>
<path d="M1934 2087 c-2 -7 -3 -65 -2 -128 l3 -114 85 0 c81 0 85 1 88 23 3
21 0 22 -63 22 l-66 0 3 28 c3 25 7 27 56 30 44 3 52 6 52 23 0 16 -7 19 -55
19 -54 0 -55 0 -55 30 l0 30 66 0 c62 0 65 1 62 23 -3 20 -9 22 -86 25 -62 2
-84 -1 -88 -11z"/>
<path d="M2160 1970 l0 -130 84 0 c67 0 85 3 90 16 10 27 -3 34 -65 34 -59 0
-59 0 -59 30 0 29 1 30 50 30 43 0 50 3 50 20 0 17 -7 20 -50 20 -49 0 -50 1
-50 30 l0 30 60 0 c46 0 62 4 67 16 9 25 -16 34 -99 34 l-78 0 0 -130z"/>
<path d="M2615 2088 c-3 -8 -4 -66 -3 -129 3 -106 4 -114 23 -114 18 0 21 8
25 75 l5 75 21 -60 c17 -50 24 -60 44 -60 20 0 27 10 46 65 l22 65 3 -80 c4
-72 6 -80 24 -80 19 0 20 7 20 125 l0 125 -26 3 c-33 4 -42 -9 -64 -91 -10
-37 -21 -65 -24 -62 -3 3 -17 38 -31 78 -22 64 -28 72 -53 75 -16 2 -29 -2
-32 -10z"/>
<path d="M2980 2085 c-16 -19 -98 -229 -93 -237 8 -15 44 -8 50 10 9 24 23 32
60 32 30 0 63 -21 63 -41 0 -11 37 -12 44 -1 8 13 -85 240 -100 246 -7 3 -18
-1 -24 -9z"/>
<path d="M3262 2092 c-9 -6 -12 -39 -10 -128 3 -111 4 -119 23 -119 18 0 20 8
23 78 2 42 6 77 10 77 4 0 25 -35 47 -78 36 -70 43 -77 70 -77 l30 0 0 125 c0
118 -1 125 -20 125 -18 0 -20 -8 -25 -85 l-5 -85 -45 85 c-45 85 -66 102 -98
82z"/>
<path d="M3670 2087 c-21 -11 -25 -20 -26 -59 0 -26 -6 -53 -12 -61 -7 -8 -15
-28 -18 -45 -12 -60 59 -100 130 -72 16 6 27 6 31 0 4 -6 15 -10 27 -10 15 0
18 4 12 18 -4 9 -8 40 -8 67 -1 55 -21 69 -42 28 l-11 -23 -26 28 c-29 30 -46
70 -40 90 6 17 42 15 49 -3 4 -8 17 -15 31 -15 19 0 24 4 19 16 -3 9 -6 19 -6
23 0 10 -46 31 -68 31 -9 0 -28 -6 -42 -13z"/>
<path d="M4047 2093 c-23 -41 -97 -235 -92 -243 11 -18 34 -11 51 15 13 20 25
25 55 25 30 0 42 -5 55 -25 16 -24 48 -34 57 -17 5 6 -78 211 -96 240 -9 13
-24 16 -30 5z"/>
<path d="M4223 2093 c-14 -5 -19 -205 -7 -237 13 -34 151 -13 179 27 18 25 21
138 4 169 -20 36 -126 62 -176 41z"/>
<path d="M4446 2091 c-3 -5 13 -63 37 -128 58 -160 67 -160 124 2 27 77 38
123 32 130 -19 19 -43 -11 -67 -84 -13 -40 -26 -70 -29 -68 -2 3 -17 38 -32
79 -25 68 -50 95 -65 69z"/>
<path d="M910 1665 c0 -3 16 -31 35 -61 19 -30 35 -56 35 -59 0 -3 -16 -29
-35 -59 -19 -30 -35 -58 -35 -61 0 -3 11 -5 24 -5 17 0 31 11 46 35 12 19 25
35 30 35 5 0 18 -16 30 -35 15 -24 29 -35 46 -35 13 0 24 2 24 5 0 2 -16 29
-35 59 -19 30 -35 59 -35 63 0 4 14 28 30 53 35 52 38 70 11 70 -11 0 -28 -15
-41 -35 -12 -19 -25 -35 -30 -35 -5 0 -18 16 -30 35 -15 24 -29 35 -46 35 -13
0 -24 -2 -24 -5z"/>
<path d="M1409 1663 c-23 -6 -39 -46 -33 -85 4 -24 1 -38 -10 -47 -23 -19 -20
-74 4 -96 12 -11 34 -18 53 -18 17 1 56 2 86 2 l53 1 -15 23 c-10 15 -12 29
-6 38 5 8 9 26 9 42 0 21 -5 27 -21 27 -12 0 -23 -8 -26 -20 -7 -28 -16 -25
-52 15 -35 40 -39 66 -15 86 15 12 19 11 32 -9 18 -28 52 -30 52 -3 0 37 -55
59 -111 44z"/>
<path d="M1690 1661 c0 -5 14 -33 32 -61 31 -49 31 -51 15 -83 -9 -18 -26 -47
-37 -64 l-22 -33 26 0 c19 0 33 10 52 40 15 22 28 40 30 40 2 0 13 -18 24 -40
16 -30 26 -40 45 -40 30 0 31 6 4 45 -51 76 -51 77 -14 136 18 29 31 57 29 61
-13 20 -44 5 -66 -33 l-24 -41 -27 41 c-17 25 -35 41 -47 41 -11 0 -20 -4 -20
-9z"/>
<path d="M2240 1544 c0 -124 0 -125 23 -122 19 3 22 10 25 51 l3 47 50 0 c42
0 49 3 49 20 0 17 -7 20 -50 20 -49 0 -50 1 -50 30 l0 30 60 0 c57 0 60 1 60
25 0 25 -1 25 -85 25 l-85 0 0 -126z"/>
<path d="M2469 1641 c-26 -26 -29 -36 -29 -91 0 -34 6 -73 15 -89 26 -51 109
-62 154 -20 43 41 41 168 -4 206 -39 34 -98 31 -136 -6z"/>
<path d="M2687 1663 c-4 -3 -7 -47 -7 -97 0 -105 10 -128 65 -146 26 -9 44 -9
70 0 52 17 66 52 63 158 -3 82 -4 87 -25 90 -22 3 -23 1 -23 -75 0 -86 -15
-126 -47 -131 -40 -6 -53 22 -53 119 0 80 -2 89 -18 89 -10 0 -22 -3 -25 -7z"/>
<path d="M2937 1664 c-4 -4 -7 -61 -7 -126 l0 -118 25 0 c24 0 24 2 27 83 l3
82 43 -82 c39 -76 45 -83 72 -83 l30 0 0 125 c0 118 -1 125 -20 125 -18 0 -20
-7 -20 -78 0 -43 -3 -81 -6 -84 -3 -4 -25 31 -48 75 -34 65 -49 83 -68 85 -13
2 -27 0 -31 -4z"/>
<path d="M3195 1658 c-3 -8 -4 -63 -3 -124 l3 -109 65 -3 c106 -5 136 28 128
138 -6 85 -26 103 -118 108 -54 3 -71 1 -75 -10z"/>
<path d="M3507 1663 c-4 -7 -38 -89 -94 -230 -9 -22 45 -15 57 7 8 15 21 20
55 20 34 0 47 -5 55 -20 6 -12 21 -20 35 -20 14 0 25 1 25 3 0 4 -39 103 -69
172 -27 64 -51 89 -64 68z"/>
<path d="M3634 1655 c-9 -21 4 -33 41 -37 l30 -3 2 -75 c1 -41 2 -85 3 -97 0
-18 6 -23 25 -23 25 0 25 0 25 99 l0 100 33 3 c24 2 32 8 32 23 0 18 -8 20
-93 23 -77 2 -93 0 -98 -13z"/>
<path d="M4005 1658 c-36 -21 -44 -42 -45 -111 0 -82 10 -104 57 -123 44 -19
87 -10 113 23 27 35 29 160 2 193 -21 26 -96 37 -127 18z"/>
<path d="M4207 1663 c-4 -3 -7 -60 -7 -125 l0 -118 25 0 c24 0 25 2 25 75 0
44 4 75 10 75 6 0 27 -34 47 -75 35 -71 39 -75 71 -75 l33 0 -3 123 c-3 114
-4 122 -23 122 -18 0 -20 -8 -25 -85 l-5 -84 -34 69 c-18 39 -40 78 -49 88
-15 17 -53 23 -65 10z"/>
<path d="M1573 980 c-79 -18 -93 -57 -93 -251 0 -242 7 -249 255 -249 253 0
255 2 255 259 l0 171 -28 31 c-19 21 -42 34 -72 40 -55 10 -273 10 -317 -1z
m102 -141 c6 -40 4 -54 -10 -69 -23 -25 -13 -52 37 -95 48 -40 58 -42 82 -16
14 15 26 18 59 14 55 -7 61 -14 53 -58 l-7 -37 -52 4 c-137 11 -257 138 -257
271 l0 37 44 0 44 0 7 -51z"/>
<path d="M2249 978 c-25 -10 -39 -25 -39 -45 0 -18 28 -16 46 2 19 19 33 19
40 0 4 -8 -13 -39 -40 -73 -65 -83 -63 -94 22 -90 52 2 67 6 67 18 0 10 -12
16 -38 18 l-37 3 34 40 c18 22 36 51 39 64 9 49 -41 82 -94 63z"/>
<path d="M2593 980 c-12 -5 -27 -19 -33 -31 -15 -28 -9 -141 9 -163 17 -21 85
-21 105 0 20 19 22 152 4 176 -17 20 -57 29 -85 18z"/>
<path d="M2950 977 c-23 -12 -25 -18 -28 -97 -3 -94 6 -110 61 -110 59 0 67
12 67 104 0 55 -4 87 -13 94 -22 18 -61 23 -87 9z"/>
<path d="M3130 978 c-61 -22 -53 -98 13 -121 16 -6 17 -9 2 -36 -20 -40 -19
-53 6 -49 42 6 90 169 57 195 -21 16 -52 21 -78 11z"/>
<path d="M2402 915 c-18 -36 -32 -77 -32 -90 0 -23 4 -25 45 -25 33 0 45 -4
45 -15 0 -8 9 -15 20 -15 11 0 20 7 20 15 0 8 5 15 10 15 6 0 10 9 10 19 0 11
-4 23 -10 26 -5 3 -10 17 -10 31 0 36 -34 28 -38 -9 -2 -15 -9 -27 -18 -27
-21 0 -17 24 11 80 30 60 30 60 2 60 -18 0 -29 -13 -55 -65z"/>
<path d="M2765 910 c-48 -96 -47 -110 10 -110 33 0 45 -4 45 -15 0 -8 9 -15
20 -15 11 0 20 6 20 14 0 8 5 16 12 18 18 6 -12 99 -32 96 -8 -2 -16 -16 -18
-31 -2 -15 -9 -27 -18 -27 -19 0 -18 11 11 76 30 68 30 64 5 64 -14 0 -29 -19
-55 -70z"/>
<path d="M3436 964 c-33 -33 -14 -89 37 -107 16 -6 17 -9 2 -36 -20 -39 -19
-51 3 -51 14 0 27 18 46 63 28 67 33 116 14 135 -17 17 -84 15 -102 -4z"/>
<path d="M2207 692 c-10 -10 -17 -24 -17 -30 0 -15 36 -16 45 -2 9 14 45 12
45 -2 0 -7 -20 -39 -45 -70 -63 -80 -61 -88 25 -88 56 0 70 3 70 15 0 10 -11
15 -35 15 -43 0 -44 12 -5 57 32 36 40 89 18 111 -19 19 -82 15 -101 -6z"/>
<path d="M2385 640 c-48 -96 -47 -110 10 -110 33 0 45 -4 45 -15 0 -9 9 -15
25 -15 14 0 24 3 23 8 0 4 2 15 7 26 5 11 3 26 -3 37 -7 10 -12 26 -12 34 0 8
-9 15 -20 15 -15 0 -20 -7 -20 -25 0 -18 -5 -25 -20 -25 -19 0 -19 3 10 60 35
70 37 80 10 80 -14 0 -29 -19 -55 -70z"/>
<path d="M2549 693 c-22 -25 -19 -157 3 -180 21 -20 79 -23 102 -4 23 19 23
163 0 185 -21 21 -88 21 -105 -1z"/>
<path d="M2745 636 c-47 -98 -46 -104 13 -108 31 -2 46 -7 45 -15 -2 -8 7 -13
21 -13 29 0 41 37 28 85 -10 37 -45 42 -50 8 -2 -13 -10 -23 -18 -23 -20 0
-18 13 11 70 30 60 31 70 5 70 -15 0 -29 -19 -55 -74z"/>
<path d="M2916 694 c-12 -11 -16 -36 -16 -93 0 -89 10 -105 66 -105 51 0 67
23 72 99 6 86 -12 115 -68 115 -22 0 -45 -7 -54 -16z"/>
<path d="M3087 692 c-32 -35 -16 -95 28 -106 25 -6 25 -7 10 -42 -19 -46 -19
-44 6 -44 42 0 90 165 57 198 -19 19 -82 15 -101 -6z"/>
<path d="M3254 685 c-14 -21 -14 -30 -4 -54 9 -22 9 -33 -1 -48 -33 -53 37
-110 98 -81 31 14 42 53 24 86 -7 14 -7 29 1 50 10 27 9 34 -7 51 -27 31 -89
29 -111 -4z"/>
<path d="M3437 692 c-32 -35 -16 -95 28 -106 l25 -6 -20 -40 -20 -40 23 0 c20
0 29 11 51 59 30 66 33 112 10 135 -21 22 -77 20 -97 -2z"/>
<path d="M3604 685 c-14 -21 -15 -31 -6 -50 9 -18 9 -31 1 -49 -32 -70 56
-124 119 -74 14 12 16 52 2 77 -6 12 -5 29 2 49 10 27 9 34 -7 51 -28 31 -89
29 -111 -4z"/>
</g>
</svg>
